<svg xmlns="http://www.w3.org/2000/svg" width="164" height="18" viewBox="0 0 164 18" fill="none">
<path d="M15.6958 15.4464C12.1432 18.7904 6.5354 18.7013 3.09086 15.2482C-0.353673 11.7952 -0.364698 6.25158 3.0644 2.78293C6.4935 -0.683488 12.0991 -0.794805 15.6672 2.53135L13.6097 4.68868C11.2325 2.47124 7.49467 2.54471 5.21007 4.85566C2.92327 7.1666 2.93209 10.8623 5.22771 13.1644C7.52333 15.4664 11.2612 15.5243 13.6296 13.2957L15.6958 15.4464Z" fill="black"/>
<path d="M37.6178 9.07681C37.6178 13.9904 33.5889 17.9733 28.6206 17.9733C23.6522 17.9733 19.6233 13.9904 19.6233 9.07681C19.6233 4.16326 23.6522 0.180334 28.6206 0.180334C33.5867 0.184787 37.6134 4.16549 37.6178 9.07681ZM34.6187 9.07681C34.6187 5.80185 31.9328 3.14583 28.6206 3.14583C25.3083 3.14583 22.6224 5.80185 22.6224 9.07681C22.6224 12.3518 25.3083 15.0078 28.6206 15.0078C31.9328 15.0056 34.6143 12.3518 34.6187 9.07681Z" fill="black"/>
<path d="M57.0986 0.142486V18L45.8499 7.12653V17.931H42.8508V0.0801485L54.0996 10.9536V0.142486H57.0986Z" fill="black"/>
<path d="M73.1614 12.8215V12.9061C73.157 15.6423 70.9143 17.862 68.1467 17.8642H67.3529C64.9139 17.8686 62.8278 16.1343 62.4132 13.7588L65.3682 13.2512C65.5358 14.2063 66.3737 14.9009 67.3529 14.8987H68.1467C69.2582 14.8965 70.1601 14.0059 70.1623 12.9061V12.8215C70.1601 11.9911 69.6397 11.2497 68.8546 10.9558L65.5931 9.74471C63.324 8.90316 61.9876 6.57662 62.4198 4.2167C62.852 1.85677 64.9293 0.142486 67.3551 0.142486H68.1489C70.0631 0.135807 71.8118 1.21113 72.6498 2.91206L69.9594 4.22115C69.622 3.53766 68.9186 3.10352 68.1489 3.10575H67.3551C66.3804 3.10575 65.5446 3.79369 65.3704 4.74212C65.1962 5.69054 65.7342 6.6256 66.6472 6.96401L69.9087 8.17514C71.8603 8.90983 73.1548 10.7555 73.1614 12.8215Z" fill="black"/>
<path d="M89.3983 0.144712V3.1102H85.3981V17.9332H82.399V3.1102H78.3988V0.144712H89.3983Z" fill="black"/>
<path d="M107.146 17.9265H103.895L102.652 14.9766H96.5013L95.251 17.9265H92.0005L99.5952 0L107.146 17.9265ZM101.406 12.0111L99.5886 7.69648L97.7605 12.0111H101.406Z" fill="black"/>
<path d="M126.624 0.142486V18L115.376 7.12653V17.931H112.377V0.0801485L123.625 10.9536V0.142486H126.624Z" fill="black"/>
<path d="M147.06 15.4798C143.508 18.8237 137.9 18.7347 134.455 15.2816C131.011 11.8286 131 6.28497 134.429 2.81633C137.858 -0.650093 143.463 -0.76141 147.031 2.56475L144.974 4.72208C142.597 2.50464 138.859 2.57811 136.572 4.88905C134.285 7.2 134.294 10.8957 136.59 13.1978C138.885 15.4998 142.623 15.5577 144.992 13.3291L147.06 15.4798Z" fill="black"/>
<path d="M155.292 7.55844H162.247V10.5239H155.292V14.9655H163.5V17.931H152.293V0.142486H163.5V3.10798H155.292V7.55844Z" fill="black"/>
</svg>
