<svg width="220" height="64" viewBox="0 0 220 64" fill="none" xmlns="http://www.w3.org/2000/svg">
<g clip-path="url(#clip0_85_5682)">
<path d="M156.464 35.6518C156.464 32.2517 156.428 31.6868 154.963 31.4642L153.74 31.3175C153.492 31.0568 153.492 30.4213 153.776 30.2747C156.216 29.9705 158.31 29.9434 161.495 29.9434C164.679 29.9434 167.209 30.4702 168.783 31.4316C170.6 32.5939 171.75 34.5655 171.75 37.0313C171.75 42.7072 166.683 44.2768 163.922 44.2768C163.614 44.2768 163.329 44.2768 163.057 44.2388C162.802 44.0161 162.772 43.5382 162.948 43.31C166.132 42.6365 167.276 40.1707 167.276 37.1128C167.276 34.0929 165.466 31.437 162.288 31.437C160.532 31.437 160.508 31.5511 160.508 33.0067V49.3226C160.508 53.2821 160.823 53.3907 162.457 53.5754L163.753 53.722C163.965 53.9827 163.922 54.6562 163.68 54.8083C161.628 54.7268 160.048 54.6943 158.522 54.6943C156.985 54.6943 155.399 54.7268 154.012 54.8083C153.734 54.6617 153.698 53.9827 153.94 53.722L154.503 53.6514C156.143 53.3907 156.458 53.2821 156.458 49.3226V35.6626L156.464 35.6518Z" fill="black"/>
<path d="M176.284 35.4236C176.284 31.4696 175.969 31.3555 174.322 31.0948L173.771 31.0242C173.523 30.7581 173.56 30.09 173.838 29.9434C174.51 29.9705 175.236 30.0085 175.999 30.0085C176.774 30.0466 177.579 30.0466 178.348 30.0466H185.019C187.247 30.0466 189.275 30.0085 189.729 29.9434C189.868 30.568 190.068 33.5227 190.292 35.1303C190.141 35.4236 189.444 35.4997 189.166 35.277C188.615 33.1099 188.082 32.1811 186.975 31.8769C186.169 31.6162 185.122 31.5456 184.178 31.5456H181.841C180.334 31.5456 180.334 31.6217 180.334 33.7508V40.0621C180.334 41.0288 180.382 41.0669 181.175 41.0669H182.858C185.891 41.0669 186.484 41.0288 186.732 39.4212L186.981 38.1611C187.259 37.9004 187.919 37.9004 188.088 38.1882C188.052 39.193 187.986 40.54 187.986 41.9196C187.986 43.3481 188.052 44.6462 188.088 45.8465C187.919 46.1126 187.259 46.1126 186.981 45.8899L186.732 44.3909C186.484 42.8266 185.891 42.756 182.858 42.756H181.175C180.382 42.756 180.334 42.8266 180.334 43.7608V48.4916C180.334 50.4034 180.406 51.7504 180.927 52.3859C181.351 52.9073 181.944 53.2006 184.874 53.2006C189.317 53.2821 190.074 52.1958 191.303 49.1651C191.612 48.9098 192.205 49.0184 192.417 49.3932C192.205 50.9629 191.436 53.7981 190.952 54.8029C190.183 54.7649 189.069 54.7268 187.598 54.7268C186.133 54.6943 184.39 54.6943 182.325 54.6943H178.348C176.822 54.6943 174.679 54.7268 173.112 54.8083C172.833 54.6617 172.797 53.9882 173.045 53.722L174.322 53.5754C175.969 53.3907 176.284 53.2821 176.284 49.3226V35.4291V35.4236Z" fill="black"/>
<path d="M200.59 41.0234C200.59 42.2237 200.59 42.2943 202.267 42.2943C205.681 42.2943 207.255 40.4965 207.255 36.9498C207.255 34.006 205.475 31.4261 202.436 31.4261C200.62 31.4261 200.59 31.5401 200.59 33.2565V41.0234ZM196.54 35.6571C196.54 32.067 196.504 31.6162 194.863 31.4315L193.949 31.3229C193.707 31.0622 193.707 30.4701 193.991 30.28C196.189 30.0465 199.155 29.9487 202.018 29.9487C204.749 29.9487 207.11 30.3181 208.659 31.2088C210.439 32.2191 211.723 33.9734 211.723 36.6674C211.723 40.1 209.241 41.8109 207.539 42.5659C207.328 42.6745 207.394 42.9732 207.539 43.1905C210.324 48.2417 212.068 51.4136 213.714 52.8638C214.689 53.7654 215.706 53.9881 216.124 54.0261C216.299 54.1782 216.299 54.5801 216.196 54.7702C215.785 54.8897 215.125 54.9929 213.89 54.9929C210.536 54.9929 208.726 53.5427 206.601 50.0666C205.651 48.497 204.682 46.4493 203.847 44.9937C203.211 43.8694 202.836 43.7228 201.667 43.7228C200.62 43.7228 200.596 43.7662 200.596 44.5429V49.328C200.596 53.2875 200.911 53.3961 202.551 53.6296L203.32 53.7328C203.562 53.9935 203.532 54.667 203.247 54.8191C201.716 54.7376 200.136 54.7051 198.61 54.7051C197.073 54.7051 195.493 54.7376 193.888 54.8191C193.616 54.6725 193.507 53.9935 193.816 53.7328L194.597 53.6296C196.231 53.3961 196.546 53.2929 196.546 49.328V35.668L196.54 35.6571Z" fill="black"/>
<path d="M217.104 30.8125C216.989 30.7474 216.783 30.7202 216.523 30.7202H216.093V31.6816H216.535C216.741 31.6816 216.898 31.6707 217.001 31.6273C217.183 31.5566 217.286 31.4154 217.286 31.2036C217.286 31.0135 217.231 30.8831 217.098 30.8125M216.577 30.3943C216.928 30.3943 217.165 30.4215 217.34 30.4921C217.619 30.6007 217.776 30.8288 217.776 31.171C217.776 31.4046 217.685 31.5892 217.498 31.7033C217.407 31.7576 217.267 31.8011 217.098 31.8228C217.322 31.8499 217.473 31.9477 217.57 32.0835C217.679 32.2301 217.728 32.3659 217.728 32.5017V32.6972C217.728 32.7624 217.728 32.8276 217.74 32.8982C217.74 32.9742 217.74 33.0068 217.764 33.034L217.782 33.0666H217.322C217.322 33.0666 217.31 33.0448 217.304 33.0394V33.0068L217.292 32.9308V32.719C217.292 32.4039 217.195 32.203 217.025 32.0998C216.928 32.0455 216.741 32.0237 216.487 32.0237H216.093V33.072H215.615V30.3998H216.577V30.3943ZM215.082 30.264C214.664 30.6659 214.452 31.1602 214.452 31.7467C214.452 32.3279 214.67 32.8276 215.082 33.2349C215.506 33.6423 216.026 33.8541 216.626 33.8541C217.231 33.8541 217.734 33.6423 218.157 33.2349C218.587 32.8222 218.793 32.3279 218.793 31.7467C218.793 31.1656 218.581 30.6659 218.157 30.264C217.734 29.8458 217.231 29.6339 216.626 29.6339C216.02 29.6339 215.512 29.8458 215.082 30.264ZM218.406 33.4631C217.909 33.9356 217.322 34.1854 216.626 34.1854C215.93 34.1854 215.324 33.941 214.834 33.4631C214.344 32.9905 214.107 32.4094 214.107 31.7413C214.107 31.0624 214.35 30.4921 214.846 30.025C215.33 29.5416 215.93 29.3135 216.626 29.3135C217.322 29.3135 217.915 29.5416 218.406 30.025C218.902 30.4921 219.156 31.057 219.156 31.7413C219.156 32.4094 218.902 32.9905 218.406 33.4631Z" fill="black"/>
<path d="M1.09553 60.0226C1.24082 59.8162 1.94305 59.4142 2.12466 59.4142C2.25784 59.4142 2.7603 59.5337 3.21432 59.8596C4.06184 60.5331 4.90936 61.0165 5.44209 61.0165C5.85979 61.0165 6.15037 60.897 6.39252 60.5331C6.88892 59.8596 7.02816 58.7408 7.1008 57.9369C7.24609 55.6611 7.19766 50.4633 7.19766 44.7114C7.19766 38.9976 7.1008 34.9947 7.02816 33.3109C6.99184 32.5668 6.63467 31.725 5.05465 31.2796C4.26767 31.0841 3.92866 30.7147 3.92866 30.3997C3.92866 30.1173 4.20108 29.8457 5.01833 29.8457C6.11405 29.8457 7.51851 29.9978 9.04404 29.9978C10.9873 29.9978 12.2465 29.8837 13.3422 29.8837C13.8749 29.8837 14.3289 30.0358 14.3289 30.3563C14.3289 30.6767 14.1231 31.0026 13.2695 31.2416C12.0648 31.562 11.6108 32.078 11.5745 34.0333C11.5442 37.3084 11.405 47.8182 11.3323 51.2183C11.1992 56.0196 9.18933 59.8922 6.88892 61.7769C5.15756 63.1728 3.49885 63.8083 2.54236 63.8083C1.44664 63.8083 0.00585938 63.1293 0.00585938 62.0105C0.00585938 61.5705 0.708089 60.4516 1.10158 60.0226" fill="black"/>
<path d="M26.4061 29.5088C27.4474 29.5088 27.9135 29.8998 27.9135 30.2311C27.9135 30.6276 27.4474 31.0241 26.4606 31.2848C25.1894 31.5455 24.8867 32.3277 25.4133 33.843C26.1095 36.3958 29.9839 47.6171 30.3955 48.4046C30.5711 48.7957 30.8011 48.7359 30.9222 48.4046C31.5518 46.9599 33.8159 41.3872 34.9721 38.4326C35.2506 37.7048 35.2506 37.3789 35.2506 37.1182C35.2022 36.6619 34.7966 34.9619 34.3304 33.9734C33.6888 32.659 33.2287 31.6162 31.9029 31.2197C31.1401 30.9535 30.6256 30.6874 30.6256 30.1714C30.6256 29.7097 31.0312 29.5142 32.0119 29.5142C32.8231 29.5142 34.5665 29.7097 35.9044 29.7097C36.9457 29.7097 38.671 29.5142 39.9483 29.5142C40.8261 29.5142 41.3467 29.8455 41.3467 30.2366C41.3467 30.6928 40.935 31.0947 39.9483 31.2903C38.447 31.6813 38.2654 32.4635 38.2654 32.735C38.2654 33.1913 38.568 33.8485 38.9615 35.0977C39.3187 36.0699 42.2184 44.9991 43.4292 48.2145C43.5502 48.6762 43.7863 48.5458 43.9498 48.1493C44.9426 45.7867 46.68 40.5345 47.8363 37.1833C48.4659 35.2932 48.817 33.843 48.817 33.251C48.817 32.5938 48.6959 31.8117 46.5589 31.2197C46.0323 31.0296 45.2271 30.7634 45.2271 30.1714C45.2271 29.7803 45.9838 29.5142 46.5589 29.5142C47.1946 29.5142 49.2831 29.7097 50.1548 29.7097C52.0618 29.7097 53.5146 29.3784 54.4469 29.3784C55.131 29.3784 55.6516 29.6391 55.6516 30.0302C55.6516 30.6276 55.022 30.8123 54.3258 31.0241C52.4189 31.6759 52.1768 32.3928 51.2627 34.1689C49.3497 38.0361 47.4307 43.4132 45.6993 48.2743C44.7004 51.028 43.8348 53.1897 43.2597 55.3514C43.0841 56.0194 42.7935 56.1444 42.503 56.1444C42.2124 56.1444 41.7523 55.6773 41.3951 55.1613C41.1711 54.4389 40.4689 51.8861 39.8938 50.3056C39.1371 48.2037 37.2847 42.9461 36.2919 40.2629C36.2313 40.138 35.9589 40.138 35.8984 40.3336C34.5 43.6087 32.3509 48.6653 30.6195 53.5807C30.3834 54.314 29.6933 56.2801 29.1666 56.2801C28.64 56.2801 28.3554 56.0792 28.1254 55.2862C28.0104 54.9603 27.2537 52.5379 26.394 49.6375C25.9824 48.334 22.6226 38.8128 21.4118 35.6028C20.4796 33.175 19.7894 31.665 18.1671 31.2088C17.3559 31.0187 16.7202 30.6168 16.7202 30.2203C16.7202 29.6283 17.2953 29.4382 18.3971 29.4382C19.3838 29.4382 21.0668 29.6989 22.3381 29.6989C23.797 29.6989 25.4133 29.5033 26.4001 29.5033" fill="black"/>
<path d="M116.601 33.3326C116.637 33.8703 116.649 34.5601 116.649 35.4237V49.3172C116.649 53.2767 116.34 53.3853 114.7 53.57L113.404 53.7166C113.162 53.9773 113.192 54.6563 113.483 54.8029C115.045 54.7269 117.176 54.6888 118.713 54.6888H122.691C124.755 54.6888 126.498 54.6888 127.963 54.7214C129.428 54.7214 130.554 54.7594 131.311 54.7975C131.795 53.7872 132.57 50.9575 132.776 49.3878C132.564 49.013 131.971 48.9044 131.662 49.1597C130.427 52.1904 129.671 53.2767 125.239 53.1952C122.309 53.1952 121.71 52.9019 121.292 52.3805C120.772 51.745 120.699 50.4035 120.699 48.4916V43.7554C120.699 42.8212 120.741 42.7506 121.546 42.7506H123.223C126.256 42.7506 126.849 42.8212 127.092 44.3855L127.334 45.8845C127.618 46.1018 128.278 46.1018 128.454 45.8411C128.411 44.6462 128.345 43.3426 128.345 41.9142C128.345 40.5346 128.411 39.1876 128.454 38.1828C128.278 37.895 127.618 37.895 127.334 38.1557L127.092 39.4157C126.849 41.0234 126.25 41.0615 123.223 41.0615H121.546C120.741 41.0615 120.699 41.0234 120.699 40.0567V34.0006L116.601 33.3271V33.3326Z" fill="black"/>
<path d="M149.224 31.4262C147.65 30.4648 145.241 29.938 141.929 29.938C138.751 29.938 136.656 29.9651 134.217 30.2693C133.932 30.416 133.932 31.0514 134.18 31.3121L135.403 31.4588C136.868 31.676 136.898 32.2409 136.898 35.6464V49.3064C136.898 53.2659 136.59 53.3745 134.949 53.6352L134.386 53.7058C134.144 53.9665 134.18 54.64 134.453 54.7921C135.857 54.7106 137.431 54.678 138.963 54.678C140.5 54.678 142.068 54.7106 144.133 54.7921C144.369 54.6454 144.405 53.9665 144.193 53.7058L142.898 53.5591C141.263 53.3745 140.954 53.2659 140.954 49.3064V32.9904C140.954 31.5348 140.985 31.4208 142.734 31.4208C145.906 31.4208 147.723 34.0767 147.723 37.0966C147.723 40.1545 146.578 42.6203 143.394 43.2938C143.219 43.5219 143.255 44.0053 143.497 44.2226C143.782 44.2606 144.06 44.2606 144.369 44.2606C147.129 44.2606 152.19 42.6909 152.19 37.0151C152.19 34.5492 151.04 32.5776 149.224 31.4153" fill="black"/>
<path d="M159.557 7.18561C157.063 4.57311 153.661 3.15008 149.321 2.94369C143.806 2.66668 137.994 4.14402 131.892 7.38114C125.657 2.99257 117.793 0.564732 108.301 0.0813378C95.8118 -0.548705 84.2008 2.50374 73.4918 9.23325C62.7828 15.9573 57.1892 23.7242 56.6988 32.5068C56.4688 36.8465 57.6311 40.3932 60.1857 43.1143C62.7344 45.8409 66.2576 47.3182 70.7434 47.5518C77.6204 47.8885 84.7698 45.1728 92.1735 39.3775C99.5712 33.5931 103.446 27.6891 103.772 21.6657C104.039 16.7286 101.399 14.1215 95.8481 13.8445C90.0366 13.5512 84.2371 15.5608 78.4679 19.8679C72.6988 24.1805 69.678 28.7646 69.4176 33.5931C69.3147 35.5538 69.7567 37.2267 70.7555 38.628C71.7544 40.0293 73.0196 40.768 74.5875 40.8386C75.1989 40.8712 75.5137 40.768 75.5319 40.5181C75.55 40.2465 75.2776 40.0945 74.7207 40.0619C73.6855 40.013 72.7956 39.5622 72.0631 38.7149C71.3246 37.873 70.9916 36.8845 71.0521 35.7711C71.3004 31.2413 74.3151 26.5431 80.1024 21.6494C85.8898 16.7666 91.1928 14.442 95.9995 14.6809C100.812 14.9199 103.094 17.288 102.846 21.8015C102.544 27.4447 98.76 33.1042 91.5137 38.7366C84.2553 44.369 77.3843 47.0358 70.8948 46.7045C66.9235 46.5035 63.8301 45.3195 61.6205 43.1523C59.4048 40.9852 58.3878 38.1663 58.5815 34.6957C58.9568 27.8358 63.4911 20.737 72.1781 13.3828C82.7661 4.42646 94.8674 0.293162 108.494 0.977519C118.247 1.46634 125.523 3.91047 130.336 8.28818C127.122 10.1783 123.181 13.3828 118.489 17.9126C113.816 22.4424 109.717 26.9885 106.206 31.54C99.1474 40.7625 94.6011 46.5796 92.5246 48.9585C90.6238 51.1691 88.3536 53.3199 85.7203 55.3893C79.6968 60.1255 73.1528 62.3252 66.0821 61.9667C62.0745 61.7712 58.7994 60.7446 56.2629 58.9088C56.045 58.7568 55.8634 58.5992 55.6757 58.4363C53.672 57.3717 52.328 54.7755 52.2372 51.6959C52.2372 49.3984 52.9818 46.9489 53.7628 45.0642L53.0363 44.7981C52.0496 47.2042 51.0689 50.5282 51.5955 53.4014C51.8316 55.726 53.1271 57.7519 55.482 59.5009C58.2486 61.5594 61.796 62.6999 66.1244 62.9118C71.4214 63.1833 77.5236 61.8961 84.449 59.0718C90.309 56.6276 94.9219 53.7924 98.2696 50.5662C101.611 47.3454 105.401 41.99 109.626 34.5218C116.612 22.1763 123.744 13.6598 131.02 8.9834C133.575 11.9761 134.755 15.2893 134.562 18.9174C134.332 23.1485 132.818 26.7115 130.027 29.6119C127.231 32.5285 123.992 33.8918 120.323 33.7017C118.295 33.6039 116.298 32.9522 114.354 31.7518C114.015 31.5454 113.767 31.4368 113.604 31.4259C113.41 31.4151 113.271 31.5074 113.204 31.6921C113.174 32.2841 114.13 32.963 116.098 33.7452C118.047 34.5164 119.893 34.9401 121.643 35.0324C126.086 35.2551 130.058 33.9787 133.551 31.1924C137.032 28.4115 138.878 25.0332 139.09 21.0574C139.356 16.3375 137.165 11.9924 132.521 8.03291C138.388 4.93158 144.005 3.51941 149.357 3.78555C153.328 3.98651 156.458 5.33893 158.752 7.83195C161.047 10.3304 162.088 13.5241 161.882 17.4347C161.743 19.9385 161.192 22.2632 160.217 24.3923C160.139 24.5715 160.096 24.7073 160.09 24.7996C160.072 25.1201 160.235 25.283 160.556 25.3048C160.974 25.3211 161.452 24.3814 162.009 22.475C162.554 20.574 162.875 18.8251 162.972 17.2011C163.184 13.1439 162.045 9.80898 159.551 7.19647" fill="black"/>
</g>
<defs>
<clipPath id="clip0_85_5682">
<rect width="219.162" height="63.8135" fill="black"/>
</clipPath>
</defs>
</svg>
