<svg width="172" height="38" viewBox="0 0 172 38" fill="none" xmlns="http://www.w3.org/2000/svg">
<g clip-path="url(#clip0_2783_8901)">
<path d="M75.8618 12.3477V25.7193H73.3145V12.3477H75.8618Z" fill="black"/>
<path d="M89.977 25.7193H88.0251V12.3477H90.5725V18.1638C90.9974 17.0173 92.1216 16.1056 93.7993 16.1056C96.5591 16.1056 98.0242 18.2922 98.0242 21.052C98.0242 23.8119 96.5591 25.9762 93.7572 25.9762C92.1241 25.9762 90.9332 25.0843 90.4465 23.9181L89.9795 25.7217L89.977 25.7193ZM90.5502 21.2201C90.5502 22.9397 91.5682 23.9799 93.0136 23.9799C94.6269 23.9799 95.4546 22.8112 95.4546 21.0496C95.4546 19.2879 94.6269 18.0995 93.0136 18.0995C91.5706 18.0995 90.5502 19.1619 90.5502 20.8593V21.2201Z" fill="black"/>
<path d="M98.9856 12.3477H101.597V14.8307H98.9856V12.3477ZM101.575 16.3577V25.7193H99.0276V16.3577H101.575Z" fill="black"/>
<path d="M105.916 25.7196H103.368V16.358H105.916V17.8874C106.383 16.825 107.571 16.1035 108.972 16.1035C111.477 16.1035 112.389 17.8009 112.389 19.8813V25.7171H109.842V20.3902C109.842 18.9473 109.269 18.1196 108.016 18.1196C106.763 18.1196 105.913 19.1376 105.913 20.709V25.7171L105.916 25.7196Z" fill="black"/>
<path d="M129.791 25.9741C126.905 25.9741 124.867 23.958 124.867 21.0499C124.867 18.1419 126.905 16.1035 129.791 16.1035C132.677 16.1035 134.737 18.1419 134.737 21.0499C134.737 23.958 132.699 25.9741 129.791 25.9741ZM129.791 24.042C131.362 24.042 132.168 22.8116 132.168 21.0499C132.168 19.2883 131.362 18.0356 129.791 18.0356C128.219 18.0356 127.434 19.2661 127.434 21.0499C127.434 22.8338 128.239 24.042 129.791 24.042Z" fill="black"/>
<path d="M142.633 18.8633C142.144 18.5866 141.721 18.4606 141.104 18.4606C139.787 18.4606 138.897 19.3945 138.897 21.0919V25.7196H136.35V16.358H138.897V18.1419C139.236 17.0795 140.214 16.1035 141.509 16.1035C142.082 16.1035 142.549 16.2518 142.826 16.4865L142.636 18.8633H142.633Z" fill="black"/>
<path d="M157.011 25.9663C154.125 25.9663 152.087 23.9502 152.087 21.0421C152.087 18.1341 154.125 16.0957 157.011 16.0957C159.897 16.0957 161.957 18.1341 161.957 21.0421C161.957 23.9502 159.919 25.9663 157.011 25.9663ZM157.011 24.0342C158.582 24.0342 159.388 22.8037 159.388 21.0421C159.388 19.2805 158.582 18.0278 157.011 18.0278C155.439 18.0278 154.654 19.2582 154.654 21.0421C154.654 22.826 155.459 24.0342 157.011 24.0342Z" fill="black"/>
<path d="M169.454 16.3438H172.001V25.7054H169.454V24.176C168.965 25.2582 167.863 25.9598 166.439 25.9598C163.956 25.9598 163.106 24.2822 163.106 22.2019V16.3438H165.654V21.6929C165.654 23.116 166.185 23.9635 167.438 23.9635C168.69 23.9635 169.454 22.9455 169.454 21.3519V16.3438Z" fill="black"/>
<path d="M81.9895 16.1035C79.5064 16.1035 78.0413 17.4402 77.7226 19.3501L80.0352 19.5625C80.2476 18.6508 80.8208 18.0134 81.8808 18.0134C82.9407 18.0134 83.514 18.6508 83.514 19.691V19.9035L80.9469 20.4125C78.8245 20.8374 77.3816 21.5811 77.3816 23.3625C77.3816 24.9759 78.57 25.9519 80.5219 25.9519C81.9006 25.9519 83.1755 25.3786 83.7067 24.2965V25.7295H85.9773C85.9773 25.7295 85.9896 25.7295 85.997 25.7295V20.0962H85.9995V19.7133C85.9995 17.2499 84.4083 16.106 81.987 16.106L81.9895 16.1035ZM83.5189 21.6651C83.5189 23.1723 82.5009 24.1902 81.1618 24.1902C80.3563 24.1902 79.8671 23.8073 79.8671 23.1723C79.8671 22.2383 80.6528 22.0481 81.7573 21.8134L83.5189 21.4304V21.6651Z" fill="black"/>
<path d="M151.246 12.3535H153.937L149.074 20.5736V25.735H146.643V20.5736L141.781 12.3535H144.55L147.958 18.0238L151.246 12.3535Z" fill="black"/>
<path d="M124.871 18.1326H119.886V14.5623H126.381V12.3535H117.393V25.7375H119.886V20.2994H122.705L124.871 18.1326Z" fill="black"/>
<path fill-rule="evenodd" clip-rule="evenodd" d="M0 18.9991L18.0166 0.972656H38.0567L20.0278 18.9991H0Z" fill="#78BE1E"/>
<path fill-rule="evenodd" clip-rule="evenodd" d="M0 19L18.0166 37.0289H38.0567L20.0278 19H0Z" fill="#5A2D82"/>
<path fill-rule="evenodd" clip-rule="evenodd" d="M66.2502 18.8213L72.7532 12.3652H69.5462L63.0457 18.8213L69.9365 25.7146H73.146L66.2502 18.8213Z" fill="black"/>
<path fill-rule="evenodd" clip-rule="evenodd" d="M38.0569 0.972656V37.028L56.0784 19.0041L38.0569 0.972656Z" fill="#009530"/>
<path d="M137.17 33.2871H138.63V34.7473H137.17V33.2871Z" fill="#009530"/>
<path d="M147.495 34.878C146.013 34.878 144.968 33.8428 144.968 32.3505C144.968 30.8581 146.013 29.8105 147.495 29.8105C148.978 29.8105 150.035 30.8557 150.035 32.3505C150.035 33.8453 148.99 34.878 147.495 34.878ZM147.495 33.8848C148.301 33.8848 148.716 33.2523 148.716 32.348C148.716 31.4437 148.301 30.8013 147.495 30.8013C146.69 30.8013 146.285 31.4338 146.285 32.348C146.285 33.2622 146.7 33.8848 147.495 33.8848Z" fill="#009530"/>
<path d="M157.037 29.8105C158.334 29.8105 158.747 30.705 158.747 31.7501V34.7471H157.44V32.012C157.44 31.2707 157.21 30.8458 156.568 30.8458C155.925 30.8458 155.555 31.3696 155.555 32.175V34.7471H154.248V32.012C154.248 31.2707 154.008 30.8458 153.375 30.8458C152.743 30.8458 152.362 31.3696 152.362 32.175V34.7471H151.055V29.9415H152.362V30.7272C152.602 30.1812 153.148 29.8105 153.877 29.8105C154.727 29.8105 155.206 30.2133 155.414 30.8013C155.676 30.2355 156.254 29.8105 157.037 29.8105Z" fill="#009530"/>
<path d="M159.802 33.2871H161.262V34.7473H159.802V33.2871Z" fill="#009530"/>
<path d="M163.353 34.7467H162.35V28.0684H163.657V30.8677C163.874 30.2797 164.452 29.8102 165.312 29.8102C166.728 29.8102 167.481 30.9319 167.481 32.3501C167.481 33.7683 166.73 34.8777 165.29 34.8777C164.45 34.8777 163.839 34.4206 163.59 33.8202L163.35 34.7467H163.353ZM163.647 32.4366C163.647 33.3187 164.171 33.8523 164.912 33.8523C165.739 33.8523 166.164 33.252 166.164 32.3477C166.164 31.4434 165.739 30.8331 164.912 30.8331C164.171 30.8331 163.647 31.3791 163.647 32.2488V32.4341V32.4366Z" fill="#009530"/>
<path d="M171.728 31.2258C171.478 31.0849 171.259 31.0182 170.942 31.0182C170.268 31.0182 169.808 31.4975 169.808 32.3697V34.7465H168.501V29.941H169.808V30.8576C169.984 30.3116 170.483 29.8125 171.15 29.8125C171.444 29.8125 171.684 29.8891 171.824 30.0077L171.726 31.2282L171.728 31.2258Z" fill="#009530"/>
<path d="M143.085 32.8001C142.962 33.4623 142.566 33.8749 141.887 33.8749C141.168 33.8749 140.666 33.3412 140.666 32.348C140.666 31.3548 141.168 30.8112 141.887 30.8112C142.485 30.8112 142.863 31.125 143.028 31.6438L144.15 31.5672C143.933 30.5715 143.172 29.8105 141.887 29.8105C140.404 29.8105 139.347 30.8235 139.347 32.3505C139.347 33.8774 140.404 34.878 141.887 34.878C143.275 34.878 144.051 33.9886 144.192 32.8767L143.085 32.8001Z" fill="#009530"/>
<path d="M63.0529 12.3477V25.7193H60.5056V12.3477H63.0529Z" fill="black"/>
</g>
<defs>
<clipPath id="clip0_2783_8901">
<rect width="172" height="36.0554" fill="white" transform="translate(0 0.972656)"/>
</clipPath>
</defs>
</svg>
