<svg width="133" height="46" viewBox="0 0 133 46" fill="none" xmlns="http://www.w3.org/2000/svg">
<path d="M27.5321 1.06632C23.1903 2.58014 18.89 5.08377 15.38 8.16132C14.0907 9.29252 13.2756 10.1908 12.9845 10.798C12.8264 11.1307 12.6767 11.6631 12.5686 12.2703C12.2359 14.2332 12.186 14.907 12.186 17.8431C12.186 20.904 12.2442 21.6194 12.6934 24.0814C13.9161 30.7189 17.1766 37.2816 21.5434 41.8563C21.9177 42.2472 22.1589 42.5467 22.0757 42.5134C21.8428 42.4219 20.2375 41.2741 19.2477 40.4922C18.0999 39.5773 15.538 37.0237 14.6647 35.9175C11.1712 31.5091 8.94208 26.4769 7.70274 20.2137C7.33677 18.3921 7.17041 17.1278 6.8377 13.6427C6.75453 12.786 6.62976 12.8192 5.90612 13.9338C3.8766 17.0529 2.64558 20.9539 2.62895 24.3725L2.62063 25.4538L2.97829 26.1442C3.91819 27.9658 5.50687 30.486 6.72957 32.108C10.2729 36.7992 14.282 40.1013 20.1294 43.1622C20.7948 43.5115 21.3022 43.7943 21.2523 43.7943C21.0693 43.7943 18.6156 43.1206 17.6757 42.8128C12.0529 40.958 7.18705 37.6392 2.32119 32.3409C0.532888 30.3945 0.275039 30.1284 0.175226 30.1949C0.0587787 30.2614 0.0587787 31.2596 0.175226 32.2993C0.399804 34.4286 1.04027 36.6078 2.03839 38.6873C2.47091 39.5856 2.49586 39.6105 3.09474 40.0264C6.38855 42.2805 10.5224 43.8027 15.3051 44.493C17.7588 44.8507 21.3022 45.042 25.6607 45.042H28.3223L27.5321 44.6427C23.1154 42.4219 20.4621 37.606 19.5139 30.0701C18.8568 24.8383 19.3808 20.2303 21.2939 14.516C22.0591 12.2287 22.6413 10.8396 23.7476 8.65206C25.1117 5.94049 26.559 3.67808 28.2059 1.69846C28.7465 1.04968 28.8547 0.800152 28.655 0.733612C28.6134 0.725292 28.1061 0.875011 27.5321 1.06632Z" fill="#282828"></path>
<path d="M30.5254 19.673V28.157H31.6067H32.688V21.1119C32.688 17.2442 32.7046 14.0918 32.7296 14.1084C32.7462 14.1334 33.736 16.9531 34.9255 20.3883C36.1066 23.8152 37.1962 26.9676 37.3459 27.3918L37.6204 28.1653L38.7849 28.1404L39.9577 28.1154L42.3448 21.2117C43.659 17.4189 44.7736 14.2582 44.8152 14.1833C44.8817 14.1001 44.9067 16.2045 44.9067 21.1036L44.915 28.157H45.9963H47.0776V19.673V11.1889L45.3558 11.2056L43.6258 11.2305L42.0704 15.7221C41.2136 18.1924 40.1323 21.3116 39.6665 22.6507C39.2008 23.9899 38.7932 25.0545 38.7599 25.0213C38.7266 24.988 37.6952 22.0518 36.4725 18.5085C35.2498 14.9652 34.1685 11.8627 34.0854 11.6214L33.9273 11.1889H32.2222H30.5254V19.673Z" fill="#282828"></path>
<path d="M75.1099 13.0271L74.0702 13.6759L74.0286 15.0733L73.9871 16.4707L72.9723 16.4956L71.9492 16.5206V17.344V18.1758H72.9889H74.0286V22.1267C74.0286 24.647 74.0619 26.219 74.1201 26.4935C74.4113 27.8493 75.6423 28.4648 77.8964 28.3816C78.4952 28.3567 79.0442 28.3151 79.1274 28.2818C79.2522 28.2319 79.2688 28.1071 79.2688 27.3918V26.56L79.0609 26.61C78.1376 26.8428 77.1644 26.7014 76.7568 26.2689C76.2328 25.7283 76.2328 25.72 76.2079 21.7691L76.1829 18.1758H77.8049H79.4351V17.344V16.5123L77.8381 16.4956L76.2328 16.4707L76.1912 14.4245L76.1497 12.3784L75.1099 13.0271Z" fill="#282828"></path>
<path d="M53.384 16.2627C52.1529 16.4124 51.0966 16.953 50.5892 17.71C50.323 18.1175 50.1317 18.6665 50.0402 19.3153L49.9903 19.6729H51.1465H52.3027L52.3609 19.3569C52.5106 18.5251 53.0845 18.0177 53.9329 17.9512C54.7148 17.8846 55.0225 17.9678 55.4467 18.3587C55.9541 18.8245 56.0789 19.2737 56.0456 20.513L56.0207 21.4612L55.0059 21.5195C53.4838 21.6026 52.5106 21.8272 51.5457 22.3096C50.8055 22.6756 50.3314 23.1248 49.982 23.7652C49.7075 24.2809 49.6992 24.3142 49.6992 25.2874C49.6992 26.194 49.7159 26.3271 49.9155 26.743C50.2066 27.3585 50.6558 27.791 51.3129 28.1071C51.8285 28.3483 51.92 28.3649 52.8599 28.3649C53.7083 28.3649 53.9329 28.3317 54.3322 28.1736C54.8312 27.974 55.6048 27.3335 55.8044 26.9592C55.871 26.8428 55.9541 26.743 55.9957 26.743C56.029 26.743 56.0623 27.0591 56.0623 27.45V28.157H57.1436H58.2249V23.9316C58.2249 21.611 58.1833 19.4317 58.1417 19.0907C57.9836 17.8763 57.26 16.8865 56.2452 16.5122C55.7878 16.3375 54.6982 16.1712 54.1908 16.1878C54.0577 16.1961 53.6917 16.2294 53.384 16.2627ZM56.004 23.5157C55.9874 24.5305 55.5715 25.4288 54.798 26.1192C54.3322 26.535 53.6418 26.7929 53.2176 26.7097C51.97 26.4602 51.6622 24.7467 52.7019 23.8401C53.3341 23.2828 54.4653 22.9085 55.4384 22.9418L56.0207 22.9584L56.004 23.5157Z" fill="#282828"></path>
<path d="M66.0262 16.2627C64.92 16.4374 63.8636 17.2525 63.298 18.3837L63.0069 18.9577L62.982 17.735L62.957 16.5123H61.884H60.8027V22.3347V28.157H61.8757H62.957L62.982 25.0545L63.0069 21.9604L63.2814 21.1619C63.8553 19.4401 64.9034 18.417 66.0762 18.417C66.8747 18.417 67.3072 18.7248 67.5484 19.465C67.6232 19.7146 67.6565 20.8791 67.6815 23.9732L67.7147 28.157H68.796H69.8773L69.8524 23.5158C69.8274 18.9743 69.8191 18.8745 69.6361 18.3255C69.2951 17.3191 68.5964 16.5622 67.8062 16.3542C67.3155 16.2211 66.5336 16.1879 66.0262 16.2627Z" fill="#282828"></path>
<path d="M84.7987 16.2627C83.7923 16.3958 82.7193 16.9447 82.1288 17.6268C81.6962 18.1175 81.2138 19.1822 81.0475 19.9973C80.9393 20.538 80.9227 21.0038 80.9477 22.1183C80.9976 23.8235 81.1306 24.4806 81.6547 25.5785C82.3617 27.0424 83.5677 27.9574 85.2562 28.2901C86.1129 28.4564 87.843 28.4148 88.8994 28.1903L89.5814 28.0489V27.1838C89.5814 26.3188 89.5814 26.3188 89.3984 26.377C87.3356 27.0341 85.7386 26.7596 84.5492 25.5369C83.784 24.755 83.2101 23.3826 83.1186 22.1017L83.0687 21.4197H86.454H89.831V20.7542C89.831 18.7829 89.0325 17.2858 87.6434 16.637C86.795 16.2377 85.8967 16.1213 84.7987 16.2627ZM86.4623 18.0843C87.0944 18.3671 87.5186 18.941 87.6351 19.6563L87.6933 20.0056H85.4309C82.9356 20.0056 83.0853 20.0472 83.3016 19.4317C83.5345 18.7746 84.0252 18.2672 84.649 18.0427C85.1148 17.8763 86.063 17.9013 86.4623 18.0843Z" fill="#282828"></path>
<path d="M95.9042 16.2544C93.858 16.5538 92.5604 17.7266 92.0364 19.7645C91.7287 20.9456 91.7287 22.8753 92.0447 24.1479C92.2194 24.8632 92.8017 26.0942 93.2175 26.5933C93.8913 27.4334 94.9892 28.0738 96.1038 28.2818C97.2267 28.498 99.2728 28.3982 100.421 28.0738L100.728 27.9823V27.2338C100.728 26.5351 100.72 26.4852 100.57 26.5351C99.8551 26.7596 98.6324 26.7929 97.7756 26.6182C96.0871 26.2606 94.9393 25.146 94.4402 23.366C94.2406 22.6341 94.1907 20.8624 94.3571 20.1471C94.59 19.1573 95.1223 18.3837 95.7794 18.0843C96.1786 17.9013 96.9605 17.8763 97.3431 18.0427C97.9254 18.2839 98.3995 19.1406 98.3995 19.9391V20.2552H99.6471H100.895V19.856C100.895 18.9743 100.396 17.7516 99.8135 17.2276C99.3726 16.8283 98.8486 16.5372 98.308 16.3958C97.7091 16.2461 96.4947 16.1712 95.9042 16.2544Z" fill="#282828"></path>
<path d="M107.199 16.2627C105.178 16.5122 103.789 17.7349 103.232 19.7561C102.957 20.746 102.841 22.1766 102.957 23.2745C103.082 24.4806 103.232 25.0545 103.647 25.8946C104.454 27.5415 105.993 28.4066 108.106 28.4066C110.709 28.3982 112.414 27.0258 113.013 24.4556C113.246 23.4409 113.221 20.8874 112.972 19.9641C112.439 18.0094 111.266 16.7701 109.611 16.3875C108.904 16.2294 107.881 16.1795 107.199 16.2627ZM108.962 18.051C109.736 18.3255 110.277 19.0325 110.593 20.172C110.717 20.6046 110.742 21.0371 110.751 22.293C110.751 23.7154 110.734 23.94 110.551 24.5638C110.21 25.7615 109.57 26.4768 108.655 26.6598C107.432 26.9177 106.334 26.377 105.827 25.2791C105.494 24.5388 105.361 23.7486 105.361 22.3346C105.344 19.7728 105.96 18.4087 107.299 18.0011C107.657 17.893 108.596 17.9179 108.962 18.051Z" fill="#282828"></path>
<path d="M120.441 16.2711C119.368 16.454 118.345 17.2359 117.821 18.2839L117.53 18.8662V17.6851V16.5123H116.448H115.367V22.3347V28.157H116.448H117.53V25.2126C117.53 21.8689 117.588 21.3448 118.07 20.3634C118.387 19.7312 118.869 19.2238 119.418 18.966C119.842 18.758 120.508 18.5917 120.882 18.5917H121.19V17.3856C121.19 16.0215 121.264 16.138 120.441 16.2711Z" fill="#282828"></path>
<path d="M128.127 16.296C127.844 16.3626 127.453 16.4956 127.262 16.5955C126.813 16.8284 126.089 17.5021 125.881 17.8847C125.798 18.0427 125.698 18.1758 125.665 18.1758C125.623 18.1758 125.598 17.8015 125.598 17.344V16.5123H124.517H123.436V23.8319V31.1514H124.517H125.598V28.8641C125.598 27.3918 125.631 26.5767 125.681 26.5767C125.731 26.5767 125.765 26.61 125.765 26.6432C125.765 26.6848 125.881 26.8844 126.014 27.0924C126.53 27.8743 127.661 28.4066 128.784 28.4066C130.339 28.4066 131.387 27.7162 132.136 26.2024C132.718 25.0296 132.868 24.2145 132.868 22.2099C132.876 21.1203 132.835 20.3717 132.768 20.0473C132.41 18.4004 131.803 17.3274 130.93 16.7618C130.156 16.2711 129.058 16.0881 128.127 16.296ZM128.909 18.0594C129.898 18.4669 130.397 19.6481 130.481 21.794C130.58 24.2477 130.098 25.8863 129.1 26.4769C128.601 26.768 127.811 26.793 127.295 26.5185C126.23 25.9529 125.656 24.5139 125.656 22.3763C125.656 20.2636 126.305 18.625 127.362 18.101C127.794 17.893 128.459 17.8681 128.909 18.0594Z" fill="#282828"></path>
<path d="M38.9277 38.2631V45.042H39.8011H40.6745L40.6911 42.6132L40.716 40.1761L42.5043 42.6049L44.2927 45.042H45.4072C46.2806 45.042 46.4968 45.017 46.4386 44.9422C46.1641 44.6012 42.8121 39.91 42.7788 39.8268C42.7622 39.7769 43.4942 38.8453 44.4091 37.764C45.3324 36.691 46.081 35.7844 46.081 35.7678C46.081 35.7428 45.5985 35.7262 45.008 35.7262H43.9267L42.3214 37.5644L40.716 39.4026L40.6911 35.4434L40.6745 31.4841H39.8011H38.9277V38.2631Z" fill="#282828"></path>
<path d="M48.7422 32.3159V33.1476H49.6155H50.4889V32.3159V31.4841H49.6155H48.7422V32.3159Z" fill="#282828"></path>
<path d="M32.8543 35.5681C31.8729 35.7428 31.0577 36.2917 30.725 37.0154C30.5753 37.3314 30.5254 37.581 30.5254 38.0634C30.5254 39.2362 30.9662 39.7852 32.8543 40.9247C34.5927 41.981 34.8922 42.3054 34.6926 42.9625C34.3931 43.969 32.6215 44.1686 30.6335 43.4034C30.542 43.3618 30.5254 43.4949 30.542 44.1353L30.567 44.9172L31.274 45.0669C32.2887 45.2748 34.1186 45.2249 34.7674 44.9754C35.5077 44.6843 35.8903 44.3516 36.1981 43.7361C36.4393 43.2453 36.4642 43.1122 36.4642 42.4718C36.4642 41.1909 36.065 40.7084 34.0188 39.4857C32.7379 38.7122 32.322 38.3712 32.2555 38.0218C32.1806 37.6641 32.4301 37.2899 32.8959 37.057C33.4782 36.7658 34.2268 36.7825 35.2083 37.1152L35.9319 37.3564V36.5912V35.8259L35.333 35.6845C34.5761 35.5099 33.4532 35.46 32.8543 35.5681Z" fill="#282828"></path>
<path d="M57.5514 35.5848C56.703 35.826 55.9877 36.4581 55.6134 37.2899C55.5302 37.4812 55.4221 37.6392 55.3805 37.6392C55.3472 37.6392 55.3139 37.2067 55.3139 36.6827V35.7262H54.4822H53.6504V40.3841V45.042H54.4738H55.2973L55.3389 42.6465C55.3805 40.0431 55.4304 39.7353 55.9128 38.7455C56.6697 37.1984 58.3665 36.7077 58.9404 37.8638C59.0902 38.1549 59.0985 38.4377 59.1234 41.6068L59.1484 45.042H60.0217H60.8951L60.8702 41.2824C60.8452 37.5477 60.8452 37.5145 60.6456 37.0237C60.4044 36.4165 59.9635 35.9175 59.4894 35.7095C59.0319 35.5016 58.0588 35.4434 57.5514 35.5848Z" fill="#282828"></path>
<path d="M66.2168 35.5681C64.7446 35.8176 63.6716 36.9488 63.3306 38.6373C63.1642 39.4774 63.2058 41.1493 63.4221 41.9228C63.8962 43.6363 65.0606 44.8091 66.5994 45.1251C67.1817 45.2499 69.2195 45.1917 69.8516 45.0336L70.2842 44.9338V44.31C70.2842 43.7527 70.2675 43.7028 70.1428 43.7527C70.0596 43.786 69.5938 43.8359 69.103 43.8608C68.3628 43.8941 68.1299 43.8692 67.6391 43.7194C66.7325 43.445 66.0754 42.8877 65.6346 42.0226C65.0856 40.9497 64.9692 39.2612 65.3767 38.1799C65.8425 36.9322 67.165 36.4415 67.9885 37.2067C68.2713 37.4729 68.3711 37.7141 68.446 38.263L68.4959 38.6789L69.4857 38.7039L70.4755 38.7288L70.4256 38.1466C70.2592 36.2002 68.5957 35.1772 66.2168 35.5681Z" fill="#282828"></path>
<path d="M75.3595 35.5681C74.012 35.8093 73.122 36.6577 72.9806 37.8389L72.9224 38.3046H73.8457H74.7606L74.8189 37.9553C74.9436 37.2566 75.7671 36.7243 76.5323 36.849C76.9898 36.9322 77.3724 37.2067 77.5886 37.6392C77.755 37.9636 77.7716 38.1133 77.755 38.8453L77.73 39.6771L76.865 39.7353C74.719 39.8767 73.3549 40.5338 72.8559 41.6567C72.5897 42.2639 72.5897 43.2454 72.8559 43.8609C73.1054 44.4182 73.6627 44.9172 74.22 45.0836C74.7107 45.225 75.6756 45.2499 76.1497 45.1168C76.5822 45.0004 77.1728 44.6011 77.4389 44.2435C77.5554 44.0938 77.6718 43.9607 77.7134 43.9607C77.7467 43.9607 77.7716 44.2019 77.7716 44.5013V45.042H78.6533H79.535L79.5017 41.3156C79.4684 37.6559 79.4684 37.5893 79.2771 37.1069C79.0193 36.4581 78.5285 35.9674 77.8964 35.7345C77.3308 35.5182 76.0748 35.435 75.3595 35.5681ZM77.7134 41.3988C77.6801 43.0457 75.9833 44.4597 75.0268 43.6529C74.7107 43.3951 74.5943 43.1289 74.5943 42.6631C74.5943 42.214 74.7689 41.8896 75.2015 41.5153C75.6839 41.1077 76.6903 40.7916 77.4389 40.8249L77.73 40.8415L77.7134 41.3988Z" fill="#282828"></path>
<path d="M85.9135 35.5931C85.1067 35.8093 84.433 36.3666 84.067 37.1069C83.9755 37.3065 83.8591 37.4729 83.8258 37.4729C83.7925 37.4729 83.7592 37.082 83.7592 36.5995V35.7262H82.9275H82.0957V40.3841V45.042H82.9275H83.7592V42.9293C83.7592 39.8601 83.909 39.0366 84.6326 38.2381C85.0485 37.7806 85.6141 37.4895 86.2629 37.4147L86.6704 37.3648V36.4249C86.6704 35.3519 86.6954 35.3768 85.9135 35.5931Z" fill="#282828"></path>
<path d="M90.8294 35.5847C89.4653 35.8925 88.6003 36.7742 88.201 38.2298C88.0929 38.629 88.0513 39.0698 88.0596 40.0097C88.0679 41.8979 88.409 42.9958 89.299 43.9523C89.823 44.5179 90.4967 44.9005 91.2952 45.0919C91.9689 45.2499 93.8321 45.2166 94.5557 45.0419L94.9883 44.9338V44.2518V43.5697L94.431 43.7278C93.6242 43.9523 92.5429 43.9107 91.9024 43.6113C90.9958 43.1954 90.3803 42.4468 90.0309 41.3323C89.9145 40.9829 89.823 40.4672 89.8063 40.1927L89.7897 39.677L92.4763 39.6521L95.1546 39.6354V39.0283C95.1546 37.4562 94.3977 36.1836 93.1916 35.7344C92.5845 35.5015 91.4782 35.435 90.8294 35.5847ZM92.1602 36.8989C92.8423 37.057 93.3996 37.6891 93.4079 38.3212V38.5541H91.6695C90.5133 38.5541 89.9062 38.5209 89.8729 38.4626C89.7564 38.288 90.0975 37.6392 90.4718 37.3148C90.9708 36.8657 91.4865 36.7409 92.1602 36.8989Z" fill="#282828"></path>
<path d="M48.7422 40.3841V45.042H49.6155H50.4889V40.3841V35.7262H49.6155H48.7422V40.3841Z" fill="#282828"></path>
</svg>
