<svg width="704" height="95" viewBox="0 0 704 95" fill="none" xmlns="http://www.w3.org/2000/svg">
    <path d="M537.373 36.7591C545.507 39.9335 556.411 41.2535 564.73 43.8051C574.267 46.7332 582.089 52.4406 582.057 65.7797C582.024 81.6704 570.572 94.8607 547.914 94.7724C539.256 94.8421 527.59 91.3052 520.177 86.8108L518.308 64.5852L520.535 64.5945C523.407 80.0901 534.018 89.9341 549.411 89.9945C561.295 90.0456 570.786 84.5055 572.966 73.9226C575.94 59.468 565.069 55.9172 562.299 54.9272C555.263 52.4081 544.512 51.0091 534.984 47.8533C524.722 44.4511 517.797 37.935 517.825 26.3388C517.862 9.91832 532.893 -0.130129 552.2 0.00465549C564.042 0.0929629 573.677 4.00173 575.127 4.80114L576.633 24.2938L574.676 24.2892C572.385 11.6845 562.578 4.4758 550.02 4.42467C536.295 4.37355 528.129 12.5397 527.032 20.3339C525.74 29.5969 531.08 34.3004 537.373 36.7591ZM19.5439 36.7591C13.2508 34.3051 7.91056 29.6016 9.21193 20.3386C10.3088 12.549 18.4749 4.37819 32.1997 4.42932C44.758 4.48044 54.5647 11.6845 56.8561 24.2938L58.8081 24.2985L57.3022 4.80579C55.8521 4.00637 46.2174 0.0976098 34.3749 0.00930247C15.0681 -0.125482 0.0372659 9.91832 8.39125e-05 26.3435C-0.0278026 37.9396 6.89735 44.4558 17.1596 47.858C26.6875 51.0138 37.4424 52.4128 44.4744 54.9318C47.2445 55.9172 58.1156 59.4727 55.141 73.9272C52.9612 84.5102 43.4705 90.0503 31.5862 89.9992C16.1929 89.9387 5.58204 80.0948 2.70972 64.5992L0.48345 64.5899L2.35185 86.8154C9.76037 91.3098 21.4262 94.8468 30.0896 94.7771C52.7428 94.8654 64.1995 81.675 64.232 65.7843C64.2646 52.4453 56.4378 46.7378 46.9052 43.8098C38.5857 41.2488 27.6775 39.9335 19.5439 36.7591ZM694.979 9.50932C694.979 3.38357 700.403 3.60667 704 3.60667V1.61743H674.831V3.60667C678.451 3.60667 683.875 3.38357 683.875 9.50932L683.852 85.6024C683.852 91.7328 678.423 91.505 674.831 91.505V93.4896H704V91.505C700.379 91.505 694.956 91.7328 694.956 85.6024L694.979 9.50932ZM439.901 15.1749L468.359 93.4943H476.795L504.681 13.0881C507.674 4.45256 511.667 3.60667 517.411 3.60667V1.62207H489.762V3.60667C492.629 3.60667 494.753 3.66244 496.31 4.05285C500.177 5.01494 500.396 8.35203 500.089 10.6294C499.796 12.7813 498.89 15.0123 498.314 16.7645L476.065 81.6471H475.8L453.658 20.7058C451.994 16.0719 451.027 13.0044 450.702 10.7782C450.233 7.58514 451.371 5.54478 452.794 4.66171C454.179 3.80187 455.531 3.60202 458.901 3.60202V1.61743H426.738V3.60202C434.212 3.60202 436.861 6.81362 439.901 15.1749ZM211.064 10.5644C212.43 6.7532 211.017 4.83832 208.907 4.06679C207.638 3.60667 206.063 3.60202 204.557 3.60202V1.61743H222.339L251.876 79.9368C255.069 87.9123 257.295 91.5097 265.192 91.5097V93.4943H233.029V91.5097C236.403 91.5097 237.751 91.3145 239.122 90.45C240.535 89.5669 241.646 87.5266 241.135 84.3335C240.782 82.1073 239.773 79.0397 238.044 74.4059L233.466 62.2428H197.534L191.818 78.3519C191.218 80.1041 190.284 82.335 189.968 84.4869C189.628 86.769 189.805 90.1014 193.663 91.0681C195.22 91.4539 197.316 91.5143 200.184 91.5143V93.4989H172.548V91.5143C178.293 91.5143 182.322 90.608 185.404 82.0376L211.064 10.5644ZM231.816 57.8553L215.112 13.4646H214.842L199.087 57.8553H231.816ZM292.348 51.5576V51.7992L329.331 93.4896H348.944V91.5004C345.077 91.5004 339.258 89.4043 333.43 82.8556L307.909 54.165C324.204 52.3523 337.952 43.8191 337.952 26.4969C337.952 11.8704 326.286 1.61278 304.33 1.61278H269.849V3.60202C273.474 3.60202 278.898 3.37428 278.898 9.50467L278.87 85.5977C278.87 91.7235 273.446 91.5004 269.849 91.5004V93.4896H299.023V91.5004C295.397 91.5004 289.973 91.7235 289.973 85.5977L289.997 5.75858H297.154C305.948 5.75858 327.151 5.33098 327.151 27.3753C327.151 50.2841 305.952 51.5529 297.154 51.5529H292.348V51.5576ZM606.044 9.50932C606.044 3.38357 611.468 3.60667 615.065 3.60667V1.61743H585.896V3.60667C589.517 3.60667 594.94 3.38357 594.94 9.50932L594.917 85.6024C594.917 91.7328 589.493 91.505 585.896 91.505V93.4896H615.065V91.505C611.445 91.505 606.021 91.7328 606.021 85.6024L606.044 9.50932ZM654.446 84.0965L618.328 42.9825C618.328 42.9825 644.658 14.2175 647.465 11.2011C651.513 6.80897 655.598 3.60202 663.941 3.60202V1.61278H633.689V3.60202C634.553 3.60202 639.289 3.51836 640.865 4.07144C643.863 5.12184 644.276 8.14288 640.567 12.205L608.238 47.4397V47.5605L648.194 93.4896H667.613V91.505C663.244 91.505 657.75 87.8612 654.446 84.0965ZM166.194 1.61743V3.60667C169.062 3.60667 171.191 3.65779 172.743 4.05285C176.615 5.01494 176.996 8.35203 176.694 10.6294C176.406 12.7813 175.546 15.0169 174.974 16.7645L152.73 81.6518H152.479L131.996 20.7058C130.444 16.0766 129.556 13.0091 129.291 10.7828C128.906 7.58979 130.095 5.54478 131.536 4.66171C132.991 3.77399 134.367 3.61131 137.653 3.60667V1.61743H105.797V3.60667C113.271 3.60667 115.831 6.81362 118.653 15.1749L126.349 38.1906L111.714 81.6471H111.463L90.6638 20.7058C89.0882 16.0766 88.1726 13.0091 87.8938 10.7828C87.4894 7.58979 88.6699 5.54478 90.1061 4.66171C91.5097 3.80187 92.8808 3.60667 96.2504 3.60667V1.61743H64.1995V3.60667C71.6731 3.60667 74.2526 6.81362 77.1203 15.1749L103.766 93.4896H112.308L128.617 44.9763L144.833 93.4896H153.381L181.058 13.0834C184.009 4.48509 188.085 3.60667 193.83 3.60667V1.61743H166.194ZM390.978 7.62939e-06C421.003 7.62939e-06 432.915 25.4976 432.915 46.2591C432.915 70.7482 415.732 94.791 388.989 94.791C361.772 94.791 346.63 73.4485 346.63 47.686C346.63 19.8087 367.182 7.62939e-06 390.978 7.62939e-06ZM362.618 67.4482C367.521 76.437 374.493 83.1158 382.375 86.4297C388.994 89.209 397.225 89.5251 404.457 86.6295C421.923 79.6393 422.458 57.2092 422.574 54.7692C423.485 36.6615 415.649 17.8149 401.227 9.97874C393.567 5.82365 381.762 4.08539 371.235 10.1089C363.715 14.4127 356.752 22.9181 355.837 39.1666C355.242 49.81 358.319 59.5564 362.618 67.4482Z" fill="black"></path>
  </svg>